<svg width="32px" height="32px" viewBox="-1 6 34 20" version="1.1">
    <g stroke="none" stroke-width="1" fill="none" fill-rule="evenodd">
        <g class="add_meeting_icon" fill="#2DBE60">
            <path d="M22,4 L19,4 L19,3 L18,3 L18,4 L15,4 L15,3 L14,3 L14,4 L14,4 L11,4 L11,3 L10,3 L10,4 L8.99742191,4 C7.89427625,4 7,4.88976324 7,6.00359486 L7,26.9964051 C7,28.10296 7.89092539,29 8.99742191,29 L24.0025781,29 C25.1057238,29 26,28.1102368 26,26.9964051 L26,6.00359486 C26,4.89703997 25.1090746,4 24.0025781,4 L23,4 L23,3 L22,3 L22,4 L22,4 Z M22,5 L19,5 L19,6 L18,6 L18,5 L15,5 L15,6 L14,6 L14,5 L11,5 L11,6 L10,6 L10,5 L8.9999602,5 C8.44769743,5 8,5.43891776 8,6.00307055 L8,26.9969294 C8,27.55091 8.45470893,28 8.9999602,28 L24.0000398,28 C24.5523026,28 25,27.5610822 25,26.9969294 L25,6.00307055 C25,5.44908998 24.5452911,5 24.0000398,5 L23,5 L23,6 L22,6 L22,5 L22,5 Z M10,9 L10,10 L23,10 L23,9 L10,9 L10,9 Z M10,12 L10,13 L23,13 L23,12 L10,12 L10,12 Z M10,15 L10,16 L23,16 L23,15 L10,15 L10,15 Z M10,18 L10,19 L23,19 L23,18 L10,18 L10,18 Z M10,21 L10,22 L23,22 L23,21 L10,21 L10,21 Z M10,24 L10,25 L23,25 L23,24 L10,24 L10,24 Z"></path>
        </g>
    </g>
</svg>