<?xml version="1.0" encoding="utf-8"?>
<!-- Generator: Adobe Illustrator 24.2.0, SVG Export Plug-In . SVG Version: 6.00 Build 0)  -->
<svg version="1.1" id="Layer_1" xmlns="http://www.w3.org/2000/svg" xmlns:xlink="http://www.w3.org/1999/xlink" x="0px" y="0px" viewBox="0 0 24 24" xml:space="preserve">

	<g>
		<path d="M20.241 22.505a2.233 2.233 0 0 1-2.254-2.234c0-.264.047-.528.143-.768h-.983l-2.59 1.513h-2.998l3.693-2.138a1.538 1.538 0 0 1-.263-.864H8.993s0-1.513 2.998-1.513h4.365l.935-.529a2.896 2.896 0 0 1-.504-.576 2.266 2.266 0 0 1 .816-3.075c1.079-.624 2.47-.264 3.07.817a2.244 2.244 0 0 1-.816 3.074l-2.014 1.177c.096.192.144.409.144.625h2.254a2.253 2.253 0 0 1 2.254 2.257 2.233 2.233 0 0 1-2.254 2.234zm-2.159-7.854c.216.336.672.48 1.032.264a.75.75 0 0 0 .264-1.032.715.715 0 0 0-1.008-.265c-.36.192-.479.673-.288 1.033zm2.159 4.852c-.432 0-.744.336-.744.768 0 .409.312.745.744.745a.747.747 0 0 0 .743-.745.752.752 0 0 0-.743-.768zM19.5 8H21v3.912a3.23 3.23 0 0 0-1.5-.816V8zm0-3.5H17V3h2.5A1.5 1.5 0 0 1 21 4.5V7h-1.5V4.5zm-7-1.5H16v1.5h-3.5V3zM8 3h3.5v1.5H8V3zM3 19.5V17h1.5v2.5H7V21H4.5A1.5 1.5 0 0 1 3 19.5zM4.5 7H3V4.5A1.5 1.5 0 0 1 4.5 3H7v1.5H4.5V7zm0 4.5H3V8h1.5v3.5zm0 4.5H3v-3.5h1.5V16zm5.087 5H8v-1.5h4.178L9.587 21z" />
	</g>

</svg>
